<?xml version="1.0" encoding="UTF-8"?>
<svg width="280px" height="89px" viewBox="0 0 280 89" version="1.1" xmlns="http://www.w3.org/2000/svg" xmlns:xlink="http://www.w3.org/1999/xlink">
    <!-- Generator: Sketch 51.3 (57544) - http://www.bohemiancoding.com/sketch -->
    <title>:: logo</title>
    <desc>Created with Sketch.</desc>
    <defs>
        <polygon id="path-1" points="0 88.1473798 279.824242 88.1473798 279.824242 0.202859723 0 0.202859723"></polygon>
    </defs>
    <g id="Page-1" stroke="none" stroke-width="1" fill="none" fill-rule="evenodd">
        <g id="Desktop-HD-Copy" transform="translate(-610.000000, -347.000000)">
            <g id="//-01---VISUEL-TOP">
                <g id="::-logo" transform="translate(610.000000, 347.000000)">
                    <path d="M113.566003,15.0356933 L112.071363,8.48277761 L111.928637,8.48277761 L110.433997,15.0356933 L113.566003,15.0356933 Z M108.772741,22 L105,22 L109.769372,5 L114.230015,5 L119,22 L115.226646,22 L114.277795,18.2275632 L109.722205,18.2275632 L108.772741,22 Z" id="Fill-1" fill="#FFFFFF"></path>
                    <polygon id="Fill-2" fill="#FFFFFF" points="121 21 125 21 125 4 121 4"></polygon>
                    <polygon id="Fill-3" fill="#FFFFFF" points="128 21 132 21 132 4 128 4"></polygon>
                    <path d="M134.28544,21 L138.713822,21 L138.713822,7.86492079 L134.28544,7.86492079 L134.28544,21 Z M134,6.32345059 L139,6.32345059 L139,4 L134,4 L134,6.32345059 Z" id="Fill-4" fill="#FFFFFF"></path>
                    <g id="Group-49">
                        <path d="M149.857818,14.5114133 C149.309939,14.4335297 148.578424,14.3948897 147.662667,14.3948897 C146.747515,14.3948897 146.160242,14.5114133 145.902061,14.7450643 C145.643879,14.9787152 145.514788,15.4236783 145.514788,16.0787462 C145.514788,16.7332103 145.620242,17.1896447 145.831758,17.4462381 C146.043273,17.7034352 146.367515,17.8320338 146.805697,17.8320338 C147.619636,17.8320338 148.480848,17.6140804 149.388727,17.1775697 L149.857818,16.943315 L149.857818,14.5114133 Z M142.943879,19.6094714 C142.184485,18.8143337 141.805091,17.6611728 141.805091,16.1481774 C141.805091,14.6363894 142.341455,13.5375659 143.413576,12.8511031 C144.485091,12.1646403 146.046303,11.8217108 148.097212,11.8217108 L149.857818,11.8217108 C149.857818,10.7766209 149.756,10.1022331 149.55297,9.79854726 C149.349333,9.49486142 148.891152,9.34271663 148.17903,9.34271663 C147.466909,9.34271663 146.676606,9.42060028 145.808121,9.57636756 C144.939636,9.7327386 143.97297,9.96699328 142.908727,10.2779241 L142.157212,7.65886018 C142.79903,7.36302308 143.71903,7.08590221 144.916,6.82870506 C146.113576,6.57150791 147.181455,6.44290934 148.120848,6.44290934 C150.045697,6.44290934 151.423273,6.88304249 152.25297,7.76391254 C153.081455,8.64478258 153.497212,9.92714584 153.497212,11.6110023 L153.497212,20.4981902 L151.196,20.4981902 L150.726303,18.9779497 L150.585091,18.9779497 C150.398424,19.1186233 150.151152,19.2906918 149.846303,19.4929478 C149.540848,19.6958075 148.965697,19.9644759 148.120848,20.3001604 C147.275394,20.6352412 146.508727,20.8024798 145.819636,20.8024798 C144.661455,20.8024798 143.702667,20.4052128 142.943879,19.6094714 Z" id="Fill-5" fill="#FFFFFF"></path>
                        <path d="M160.704182,20.4982505 L157.065394,20.4982505 L157.065394,6.74665555 L159.389636,6.74665555 L159.812061,8.12682617 L159.953273,8.12682617 C161.862364,7.0038527 163.513273,6.44296971 164.906606,6.44296971 C166.299333,6.44296971 167.246,6.87948037 167.747212,7.75250168 C168.247818,8.62612673 168.498121,9.87286878 168.498121,11.4945391 L168.498121,20.4982505 L164.859333,20.4982505 L164.859333,12.1725494 C164.859333,10.9559948 164.757515,10.2236471 164.554485,9.9736949 C164.350848,9.72495024 164.029636,9.59997416 163.592061,9.59997416 C162.621152,9.59997416 161.658727,9.92720621 160.704182,10.5822741 L160.704182,20.4982505 Z" id="Fill-7" fill="#FFFFFF"></path>
                        <path d="M181.598485,9.6932534 C179.97,9.44450874 178.683333,9.31953266 177.736667,9.31953266 C176.789394,9.31953266 176.143939,9.49099743 175.799697,9.83332321 C175.220909,10.4419024 174.931212,11.7405669 174.931212,13.7281092 C174.931212,15.7156514 175.306364,16.9986184 176.057879,17.5751989 C176.370606,17.8088498 176.762727,17.9259772 177.231818,17.9259772 C178.108182,17.9259772 179.250606,17.6452338 180.659091,17.0837471 L181.363333,16.8030037 L182.349394,19.3755789 C182.208788,19.4854613 182.005152,19.6176824 181.739091,19.7734497 C181.47303,19.9298207 180.909394,20.1399254 180.048788,20.4049713 C179.187576,20.6700172 178.311818,20.8022383 177.419091,20.8022383 C175.494848,20.8022383 173.972424,20.2141866 172.85303,19.0374794 C171.734242,17.8595648 171.174848,16.0398647 171.174848,13.5759644 C171.174848,10.8319244 171.863333,8.9295107 173.240909,7.86932714 C174.461515,6.91842219 176.057879,6.44266784 178.03,6.44266784 C179.376061,6.44266784 180.698485,6.6141326 181.997273,6.95766589 L181.598485,9.6932534 Z" id="Fill-9" fill="#FFFFFF"></path>
                        <path d="M191.834606,9.81056187 C191.552788,9.46823609 190.989152,9.29556382 190.144303,9.29556382 C189.298848,9.29556382 188.695818,9.49842354 188.336424,9.90414299 C187.976424,10.3098624 187.772788,11.0965476 187.726121,12.2660098 L192.25703,12.1724286 C192.225515,10.9407803 192.084303,10.1534914 191.834606,9.81056187 M190.307939,20.8024194 C186.05097,20.8024194 183.922485,18.4091576 183.922485,13.6220304 C183.922485,8.8361107 186.035818,6.44284896 190.261273,6.44284896 C192.154606,6.44284896 193.579455,6.94577203 194.534,7.95161815 C195.488545,8.95686053 195.966121,10.621397 195.966121,12.9440201 L195.966121,14.8850737 L187.702485,14.8850737 C187.702485,16.1952094 187.944909,17.0609857 188.430364,17.4817989 C188.758848,17.777636 189.220667,17.9255546 189.815212,17.9255546 C190.91097,17.9255546 192.303697,17.6762061 193.994,17.1775093 L194.815818,16.9203122 L195.708545,19.5393761 C195.003697,19.8672119 194.126727,20.1600303 193.078848,20.4166237 C192.029758,20.6738208 191.106727,20.8024194 190.307939,20.8024194" id="Fill-11" fill="#FFFFFF"></path>
                        <path d="M212.047697,10.0210288 C211.844061,9.72519174 211.530727,9.57666944 211.108303,9.57666944 C210.278606,9.57666944 209.39497,9.80307538 208.455576,10.2546798 L207.986485,10.4653882 L207.986485,17.5286498 C208.737394,17.747207 209.473152,17.8558819 210.192545,17.8558819 C210.912545,17.8558819 211.398,17.754452 211.648909,17.5515923 C212.211939,17.1929653 212.493758,15.7741547 212.493758,13.2951606 C212.493758,11.549118 212.344667,10.4575395 212.047697,10.0210288 Z M207.986485,24.3805992 L204.347091,24.3805992 L204.347091,6.7462933 L206.671333,6.7462933 L207.093758,8.14940638 L207.211939,8.14940638 C208.839212,7.01194294 210.330121,6.44260746 211.683455,6.44260746 C213.037394,6.44260746 214.14103,7.01496168 214.993758,8.16148137 C215.847091,9.30739731 216.273758,11.0498174 216.273758,13.3887417 C216.273758,16.6477798 215.412545,18.8303331 213.691333,19.9370053 C212.767091,20.5135858 211.695576,20.8021779 210.474364,20.8021779 C209.738606,20.8021779 208.909515,20.732143 207.986485,20.5920732 L207.986485,24.3805992 Z" id="Fill-13" fill="#FFFFFF"></path>
                        <path d="M226.932303,13.6223323 C226.932303,11.8454985 226.771091,10.6639613 226.451091,10.0795321 C226.129879,9.49510292 225.511697,9.20288832 224.596545,9.20288832 C223.680788,9.20288832 223.058364,9.49872542 222.729273,10.0910034 C222.400788,10.6838851 222.236545,11.8605922 222.236545,13.6223323 C222.236545,15.3846761 222.400788,16.561987 222.729273,17.154265 C223.058364,17.7471467 223.680788,18.0429838 224.596545,18.0429838 C225.511697,18.0429838 226.129879,17.7507692 226.451091,17.1657362 C226.771091,16.5807033 226.932303,15.3997699 226.932303,13.6223323 M219.924424,8.27794458 C220.855333,7.05474875 222.416545,6.44254709 224.608061,6.44254709 C226.79897,6.44254709 228.352909,7.05052251 229.268061,8.2670771 C230.183818,9.48363169 230.641394,11.268918 230.641394,13.6223323 C230.641394,15.9769541 230.183818,17.7622404 229.268061,18.9781912 C228.352909,20.1947458 226.79897,20.8027213 224.608061,20.8027213 C222.416545,20.8027213 220.855333,20.1905196 219.924424,18.96672 C218.992909,17.7423167 218.527455,15.9612566 218.527455,13.6223323 C218.527455,11.2840117 218.992909,9.50295166 219.924424,8.27794458" id="Fill-15" fill="#FFFFFF"></path>
                        <path d="M241.111939,6.74641405 L244.751333,6.74641405 L244.751333,20.498009 L242.427091,20.498009 L241.98103,19.0719535 L241.839818,19.0719535 C241.276182,19.414883 240.807091,19.6841552 240.431333,19.8791661 C240.055576,20.0735734 239.55497,20.2764331 238.928303,20.4865378 C238.302242,20.6972463 237.715576,20.8022986 237.167697,20.8022986 C235.712545,20.8022986 234.707091,20.3579392 234.151333,19.4692204 C233.595576,18.5811054 233.318,17.3259109 233.318,15.7042406 L233.318,6.74641405 L236.956788,6.74641405 L236.956788,15.3534623 C236.956788,16.507227 237.058606,17.1773886 237.261636,17.3645508 C237.464667,17.5511093 237.793758,17.6452942 238.247697,17.6452942 C239.202848,17.6452942 240.157394,17.3180621 241.111939,16.6629943 L241.111939,6.74641405 Z" id="Fill-17" fill="#FFFFFF"></path>
                        <path d="M251.946485,7.71688047 C252.205273,7.52247324 252.665879,7.26104985 253.331939,6.93381779 C253.996788,6.60598199 254.622848,6.44296971 255.210121,6.44296971 C255.797394,6.44296971 256.262242,6.52809835 256.606485,6.69956311 L256.325273,9.83362509 C255.886485,9.7871364 255.456182,9.76419393 255.033758,9.76419393 C253.984667,9.76419393 253.006485,10.0443336 252.099212,10.6058203 L252.099212,20.4982505 L248.460424,20.4982505 L248.460424,6.74665555 L250.714364,6.74665555 L251.183455,8.19686107 L251.324667,8.19686107 C251.480424,8.07188499 251.688303,7.91249521 251.946485,7.71688047" id="Fill-19" fill="#FFFFFF"></path>
                        <mask id="mask-2" fill="white">
                            <use xlink:href="#path-1"></use>
                        </mask>
                        <g id="Clip-22"></g>
                        <polygon id="Fill-21" fill="#FFFFFF" mask="url(#mask-2)" points="107.08303 51.682137 110.721818 51.682137 110.721818 33.884215 107.08303 33.884215"></polygon>
                        <path d="M121.708848,45.6947564 C121.16097,45.6168728 120.429455,45.5782328 119.513697,45.5782328 C118.598545,45.5782328 118.011273,45.6947564 117.753091,45.9290111 C117.494909,46.162662 117.365818,46.6070214 117.365818,47.2620893 C117.365818,47.9171571 117.471273,48.3729878 117.682788,48.6295812 C117.894303,48.8873821 118.218545,49.0159806 118.656727,49.0159806 C119.470667,49.0159806 120.331879,48.7980272 121.239758,48.3609128 L121.708848,48.1272619 L121.708848,45.6947564 Z M114.794909,50.7934182 C114.035515,49.9982806 113.656121,48.8445159 113.656121,47.3321242 C113.656121,45.8197325 114.192485,44.720909 115.264606,44.0344462 C116.336121,43.3485871 117.897333,43.0056576 119.948242,43.0056576 L121.708848,43.0056576 C121.708848,41.9605678 121.60703,41.2861799 121.404,40.9818904 C121.200364,40.6782045 120.742182,40.5260597 120.030061,40.5260597 C119.317939,40.5260597 118.527636,40.6045471 117.659152,40.7603144 C116.790667,40.9160817 115.824,41.1503364 114.759758,41.4618709 L114.008242,38.8422033 C114.650061,38.5463662 115.570061,38.2692453 116.76703,38.0120482 C117.964606,37.754851 119.032485,37.6262524 119.971879,37.6262524 C121.896727,37.6262524 123.274303,38.0669893 124.103394,38.9478594 C124.933091,39.8287294 125.347636,41.1104889 125.347636,42.7943454 L125.347636,51.682137 L123.04703,51.682137 L122.577939,50.1618966 L122.436727,50.1618966 C122.248848,50.3025701 122.002182,50.4740349 121.697333,50.6762909 C121.391879,50.8791506 120.816727,51.147819 119.971879,51.4835035 C119.126424,51.8185843 118.359758,51.9864266 117.670667,51.9864266 C116.512485,51.9864266 115.553697,51.5885559 114.794909,50.7934182 Z" id="Fill-23" fill="#FFFFFF" mask="url(#mask-2)"></path>
                        <path d="M142.086485,38.2345297 C141.867091,38.0165763 141.350727,37.9066939 140.536788,37.9066939 C139.723455,37.9066939 138.987697,37.9453339 138.330121,38.0232175 L138.330121,43.4732613 C138.987697,43.5819362 139.715576,43.6362736 140.513758,43.6362736 C141.311939,43.6362736 141.859212,43.5010338 142.156788,43.2275354 C142.454364,42.9546408 142.603455,42.1323344 142.603455,40.7606163 C142.603455,39.3882944 142.430727,38.5466681 142.086485,38.2345297 Z M134.644667,35.2640838 C137.164061,35.0461303 139.293152,34.936248 141.030121,34.936248 C142.767697,34.936248 144.097394,35.4246811 145.02103,36.3985285 C145.944667,37.3723759 146.406485,38.8111102 146.406485,40.7129201 C146.406485,43.0210532 145.787697,44.6354785 144.551333,45.5543847 C143.487091,46.3344287 142.148909,46.7244506 140.536788,46.7244506 L138.330121,46.653812 L138.330121,51.6818351 L134.644667,51.6818351 L134.738,44.0112018 L134.644667,35.2640838 Z" id="Fill-24" fill="#FFFFFF" mask="url(#mask-2)"></path>
                        <path d="M152.615273,38.9007669 C152.874667,38.7063597 153.334667,38.4443326 154.001333,38.1177043 C154.665576,37.7898685 155.291636,37.6262524 155.878909,37.6262524 C156.466182,37.6262524 156.93103,37.7119848 157.275273,37.8828458 L156.994061,41.0175116 C156.555879,40.9704191 156.12497,40.9474767 155.702545,40.9474767 C154.653455,40.9474767 153.675879,41.2276163 152.768,41.789103 L152.768,51.682137 L149.129212,51.682137 L149.129212,37.930542 L151.383152,37.930542 L151.852848,39.3807475 L151.994061,39.3807475 C152.149818,39.2557715 152.357091,39.0957779 152.615273,38.9007669" id="Fill-25" fill="#FFFFFF" mask="url(#mask-2)"></path>
                        <path d="M166.408485,40.9938446 C166.126667,40.6515188 165.56303,40.4794503 164.718182,40.4794503 C163.872727,40.4794503 163.269697,40.68231 162.910303,41.0874257 C162.550303,41.4931452 162.346667,42.2804341 162.3,43.4498962 L166.830909,43.3557114 C166.799394,42.1246668 166.658182,41.3367741 166.408485,40.9938446 Z M167.958182,32.5981085 L168.685455,35.2171725 L161.595758,36.5737969 L161.078788,34.6327433 L167.958182,32.5981085 Z M164.881818,51.9863058 C160.624848,51.9863058 158.496364,49.5930441 158.496364,44.8059169 C158.496364,40.0199972 160.609697,37.6261317 164.835152,37.6261317 C166.728485,37.6261317 168.153333,38.1290547 169.107879,39.1349009 C170.062424,40.1401433 170.54,41.8052835 170.54,44.1279066 L170.54,46.0689602 L162.276364,46.0689602 C162.276364,47.3784921 162.518788,48.2442684 163.004242,48.6650816 C163.332727,48.9615225 163.794545,49.109441 164.389091,49.109441 C165.484848,49.109441 166.877576,48.8600926 168.567879,48.360792 L169.389697,48.1035949 L170.282424,50.7232626 C169.577576,51.0504946 168.700606,51.343313 167.652727,51.5999064 C166.603636,51.8577073 165.680606,51.9863058 164.881818,51.9863058 Z" id="Fill-26" fill="#FFFFFF" mask="url(#mask-2)"></path>
                        <path d="M177.630061,40.5263012 C177.034909,40.5263012 176.647636,40.6005624 176.467636,40.7484809 C176.287636,40.8970032 176.197939,41.1185792 176.197939,41.41502 C176.197939,41.7114609 176.330061,41.9728843 176.596727,42.1986864 C176.862788,42.4250924 177.128848,42.5881047 177.394909,42.6895345 C177.66097,42.7909644 177.970667,42.8923942 178.322788,42.9938241 C178.674909,43.095254 179.199152,43.2473988 179.895515,43.4502585 C180.591879,43.6531182 181.143394,43.8626192 181.550667,44.0811764 C182.755515,44.7519417 183.357939,45.8229928 183.357939,47.2967445 C183.357939,48.7698925 182.904,49.9206384 181.996727,50.7465673 C181.088848,51.5730999 179.813697,51.9860643 178.170061,51.9860643 C177.308848,51.9860643 176.408848,51.8731632 175.470061,51.6467573 C174.531273,51.4209551 173.803394,51.1993792 173.286424,50.9802182 L172.535515,50.6294399 L173.42703,47.7767251 C175.414909,48.6183514 177.042788,49.0397684 178.310667,49.0397684 C178.795515,49.0397684 179.156121,48.954036 179.390667,48.7819675 C179.625212,48.6111064 179.742788,48.2989681 179.742788,47.84676 C179.742788,47.5660166 179.695515,47.3631569 179.602182,47.2381808 C179.508242,47.1138085 179.429455,47.0160011 179.36703,46.9459662 C179.304606,46.8759313 179.210061,46.8052927 179.085212,46.7352578 C178.959758,46.6652229 178.854909,46.6108854 178.768848,46.5722455 C178.682182,46.5330018 178.553091,46.4822869 178.38097,46.4201007 C178.208848,46.3579145 178.075515,46.3108221 177.982182,46.2794271 C177.888242,46.2486359 177.731273,46.2015435 177.512485,46.1393573 C177.293091,46.0771712 177.046424,46.00291 176.773091,45.9171776 C176.499152,45.8314452 176.291879,45.7650328 176.151273,45.7185441 C176.010061,45.6714517 175.731879,45.5700218 175.317939,45.4142546 C174.902788,45.2584873 174.613091,45.1214362 174.448848,45.0049126 C174.284,44.888389 174.057333,44.7163205 173.768242,44.4899146 C173.477939,44.2647161 173.271273,44.026839 173.145818,43.7768868 C172.817333,43.0916315 172.652485,42.4051687 172.652485,41.7193096 C172.652485,40.4405688 173.082788,39.4383452 173.944,38.7138462 C174.804606,37.9887434 176.092485,37.6258902 177.805818,37.6258902 C179.519758,37.6258902 181.174909,37.8915398 182.771273,38.4216316 L182.231273,41.2278578 C180.431273,40.7605559 178.897939,40.5263012 177.630061,40.5263012" id="Fill-27" fill="#FFFFFF" mask="url(#mask-2)"></path>
                        <path d="M193.195273,40.9938446 C192.913455,40.6515188 192.349818,40.4794503 191.50497,40.4794503 C190.659515,40.4794503 190.056485,40.68231 189.697091,41.0874257 C189.337091,41.4931452 189.133455,42.2804341 189.086788,43.4498962 L193.617697,43.3557114 C193.586182,42.1246668 193.44497,41.3367741 193.195273,40.9938446 M191.668606,51.9863058 C187.411636,51.9863058 185.283152,49.5930441 185.283152,44.8059169 C185.283152,40.0199972 187.396485,37.6261317 191.621939,37.6261317 C193.515273,37.6261317 194.940121,38.1290547 195.894667,39.1349009 C196.849212,40.1401433 197.326788,41.8052835 197.326788,44.1279066 L197.326788,46.0689602 L189.063152,46.0689602 C189.063152,47.3784921 189.305576,48.2442684 189.79103,48.6650816 C190.119515,48.9615225 190.581333,49.109441 191.175879,49.109441 C192.271636,49.109441 193.664364,48.8600926 195.354667,48.360792 L196.176485,48.1035949 L197.069212,50.7232626 C196.364364,51.0504946 195.487394,51.343313 194.439515,51.5999064 C193.390424,51.8577073 192.467394,51.9863058 191.668606,51.9863058" id="Fill-28" fill="#FFFFFF" mask="url(#mask-2)"></path>
                        <path d="M203.677091,38.9007669 C203.935879,38.7063597 204.396485,38.4443326 205.062545,38.1177043 C205.727394,37.7898685 206.353455,37.6262524 206.940727,37.6262524 C207.528,37.6262524 207.992848,37.7119848 208.337091,37.8828458 L208.055879,41.0175116 C207.617091,40.9704191 207.186788,40.9474767 206.764364,40.9474767 C205.715273,40.9474767 204.737091,41.2276163 203.829818,41.789103 L203.829818,51.682137 L200.19103,51.682137 L200.19103,37.930542 L202.44497,37.930542 L202.914061,39.3807475 L203.055273,39.3807475 C203.21103,39.2557715 203.418909,39.0957779 203.677091,38.9007669" id="Fill-29" fill="#FFFFFF" mask="url(#mask-2)"></path>
                        <polygon id="Fill-30" fill="#FFFFFF" mask="url(#mask-2)" points="220.404727 37.9303005 216.390182 51.6818955 212.070182 51.6818955 208.055636 37.9303005 211.83503 37.9303005 214.159273 48.594926 214.300485 48.594926 216.624727 37.9303005"></polygon>
                        <path d="M229.842424,45.6947564 C229.294545,45.6168728 228.56303,45.5782328 227.647273,45.5782328 C226.731515,45.5782328 226.144242,45.6947564 225.886667,45.9290111 C225.628485,46.162662 225.498788,46.6070214 225.498788,47.2620893 C225.498788,47.9171571 225.604848,48.3729878 225.815758,48.6295812 C226.027273,48.8873821 226.351515,49.0159806 226.790303,49.0159806 C227.604242,49.0159806 228.464848,48.7980272 229.372727,48.3609128 L229.842424,48.1272619 L229.842424,45.6947564 Z M222.928485,50.7934182 C222.169091,49.9982806 221.789697,48.8445159 221.789697,47.3321242 C221.789697,45.8197325 222.326061,44.720909 223.397576,44.0344462 C224.469697,43.3485871 226.030909,43.0056576 228.081818,43.0056576 L229.842424,43.0056576 C229.842424,41.9605678 229.74,41.2861799 229.53697,40.9818904 C229.333333,40.6782045 228.875758,40.5260597 228.163636,40.5260597 C227.451515,40.5260597 226.661212,40.6045471 225.792121,40.7603144 C224.924242,40.9160817 223.95697,41.1503364 222.892727,41.4618709 L222.141818,38.8422033 C222.783636,38.5463662 223.70303,38.2692453 224.900606,38.0120482 C226.097576,37.754851 227.166061,37.6262524 228.104848,37.6262524 C230.030303,37.6262524 231.407273,38.0669893 232.23697,38.9478594 C233.066061,39.8287294 233.481212,41.1104889 233.481212,42.7943454 L233.481212,51.682137 L231.180606,51.682137 L230.710909,50.1618966 L230.569697,50.1618966 C230.382424,50.3025701 230.135758,50.4740349 229.830303,50.6762909 C229.525455,50.8791506 228.949697,51.147819 228.104848,51.4835035 C227.259394,51.8185843 226.492727,51.9864266 225.804242,51.9864266 C224.646061,51.9864266 223.687273,51.5885559 222.928485,50.7934182 Z" id="Fill-31" fill="#FFFFFF" mask="url(#mask-2)"></path>
                        <path d="M241.017273,38.6083108 L243.834242,38.6083108 L243.834242,41.3909908 L240.970606,41.3909908 L240.970606,47.1682667 C240.970606,47.9169156 241.040909,48.39267 241.181515,48.594926 C241.322727,48.7977857 241.588182,48.8992156 241.980303,48.8992156 L243.787576,48.7820882 L243.787576,51.7283842 C243.020909,51.9004527 242.175455,51.9861851 241.252424,51.9861851 C239.890606,51.9861851 238.896667,51.6468781 238.270606,50.9688677 C237.644545,50.2908574 237.331818,48.9921929 237.331818,47.0746855 L237.331818,41.3215596 L235.734848,41.3215596 L235.734848,39.0526702 L237.495455,38.7248344 L238.036061,35.4748526 L241.017273,35.4748526 L241.017273,38.6083108 Z" id="Fill-32" fill="#FFFFFF" mask="url(#mask-2)"></path>
                        <path d="M246.557576,51.682137 L250.196364,51.682137 L250.196364,37.930542 L246.557576,37.930542 L246.557576,51.682137 Z M246.32303,36.3167205 L250.431515,36.3167205 L250.431515,33.8848188 L246.32303,33.8848188 L246.32303,36.3167205 Z" id="Fill-33" fill="#FFFFFF" mask="url(#mask-2)"></path>
                        <path d="M261.700303,44.8062188 C261.700303,43.0293849 261.539091,41.8478478 261.219091,41.2628148 C260.897879,40.6783856 260.279697,40.386171 259.364545,40.386171 C258.448788,40.386171 257.826364,40.6826119 257.497273,41.2742861 C257.168788,41.8677715 257.004545,43.0444787 257.004545,44.8062188 C257.004545,46.5685626 257.168788,47.7452698 257.497273,48.3381514 C257.826364,48.9304294 258.448788,49.2262665 259.364545,49.2262665 C260.279697,49.2262665 260.897879,48.9340519 261.219091,48.3490189 C261.539091,47.7645897 261.700303,46.5836563 261.700303,44.8062188 M254.692424,39.4618311 C255.623333,38.2380315 257.184545,37.6258298 259.376061,37.6258298 C261.56697,37.6258298 263.120909,38.234409 264.036061,39.4503598 C264.951818,40.6669144 265.409394,42.4522007 265.409394,44.8062188 C265.409394,47.1602368 264.951818,48.9455231 264.036061,50.1620777 C263.120909,51.3780285 261.56697,51.9866077 259.376061,51.9866077 C257.184545,51.9866077 255.623333,51.3744061 254.692424,50.1506065 C253.760909,48.9262031 253.295455,47.1451431 253.295455,44.8062188 C253.295455,42.4678982 253.760909,40.6862344 254.692424,39.4618311" id="Fill-34" fill="#FFFFFF" mask="url(#mask-2)"></path>
                        <path d="M272.029939,51.6820766 L268.391152,51.6820766 L268.391152,37.9304816 L270.715394,37.9304816 L271.137818,39.3100485 L271.27903,39.3100485 C273.188121,38.187075 274.83903,37.6261921 276.232364,37.6261921 C277.625091,37.6261921 278.571758,38.0627027 279.07297,38.9363278 C279.573576,39.8093491 279.823879,41.0560911 279.823879,42.6777614 L279.823879,51.6820766 L276.185091,51.6820766 L276.185091,43.3557717 C276.185091,42.1398209 276.083273,41.4074731 275.880242,41.157521 C275.676606,40.9081726 275.355394,40.7838002 274.917818,40.7838002 C273.946909,40.7838002 272.984485,41.1104286 272.029939,41.7661002 L272.029939,51.6820766 Z" id="Fill-35" fill="#FFFFFF" mask="url(#mask-2)"></path>
                        <path d="M114.712848,72.2243405 C113.820727,71.8965047 113.022545,71.7334924 112.318303,71.7334924 C111.614061,71.7334924 111.144364,71.8584685 110.909818,72.1072132 C110.455273,72.5902125 110.228606,73.9081969 110.228606,76.059959 C110.228606,78.2111173 110.447394,79.4663119 110.886182,79.8249389 C111.120727,80.0121011 111.417697,80.1056822 111.778303,80.1056822 C112.514061,80.1056822 113.492242,79.8484851 114.712848,79.333487 L114.712848,72.2243405 Z M118.351636,65.0674978 L118.351636,82.8654197 L116.003758,82.8654197 L115.628606,81.5323415 L115.487394,81.5323415 C113.859515,82.6239201 112.392242,83.1697093 111.085576,83.1697093 C109.778303,83.1697093 108.683152,82.5768276 107.798909,81.3922717 C106.914667,80.2077159 106.472242,78.4375233 106.472242,76.0835052 C106.472242,74.6646947 106.640727,73.4559888 106.977091,72.4579914 C107.313455,71.459994 107.77103,70.7034963 108.350424,70.1897058 C109.383758,69.269592 110.612242,68.8095351 112.036485,68.8095351 C112.849818,68.8095351 113.741939,68.9266625 114.712848,69.1603134 L114.712848,65.0674978 L118.351636,65.0674978 Z" id="Fill-36" fill="#FFFFFF" mask="url(#mask-2)"></path>
                        <path d="M129.127455,72.1771273 C128.845636,71.8348015 128.282,71.662733 127.437152,71.662733 C126.591697,71.662733 125.989273,71.8655927 125.629879,72.2707084 C125.269273,72.6764279 125.066242,73.4637168 125.01897,74.6325752 L129.549879,74.5395978 C129.51897,73.3079495 129.377758,72.5200568 129.127455,72.1771273 M127.601394,83.1695886 C123.344424,83.1695886 121.215939,80.7763268 121.215939,75.9891996 C121.215939,71.2032799 123.328667,68.8094144 127.554727,68.8094144 C129.448061,68.8094144 130.872303,69.3123375 131.827455,70.3181836 C132.782,71.323426 133.259576,72.9885662 133.259576,75.3111893 L133.259576,77.2522429 L124.995939,77.2522429 C124.995939,78.5617748 125.238364,79.4275512 125.723212,79.8483643 C126.052303,80.1448052 126.513515,80.2927237 127.108667,80.2927237 C128.203818,80.2927237 129.597152,80.0433753 131.287455,79.5440748 L132.109273,79.2868776 L133.001394,81.9065453 C132.296545,82.2337773 131.420182,82.5265957 130.371697,82.7831891 C129.323212,83.04099 128.399576,83.1695886 127.601394,83.1695886" id="Fill-37" fill="#FFFFFF" mask="url(#mask-2)"></path>
                        <path d="M140.349333,71.7095839 C139.754788,71.7095839 139.366909,71.7838451 139.187515,71.9317636 C139.007515,72.0796822 138.917212,72.3018619 138.917212,72.5983027 C138.917212,72.8947436 139.049939,73.156167 139.316606,73.3819692 C139.582061,73.6083751 139.848121,73.7713874 140.114788,73.8728172 C140.380848,73.9742471 140.689939,74.075677 141.042061,74.1771068 C141.394182,74.2785367 141.918424,74.4306815 142.614788,74.6329375 C143.311152,74.8357972 143.862667,75.0459019 144.269939,75.2644591 C145.475394,75.9352244 146.077818,77.0062755 146.077818,78.4800272 C146.077818,79.9531752 145.623879,81.1039211 144.716,81.92985 C143.808121,82.7563826 142.53297,83.1693471 140.889333,83.1693471 C140.028727,83.1693471 139.128727,83.056446 138.189939,82.83004 C137.250545,82.6042378 136.522667,82.3826619 136.006303,82.1635009 L135.254788,81.8127227 L136.146909,78.9600078 C138.134788,79.8016342 139.762667,80.2230511 141.030545,80.2230511 C141.515394,80.2230511 141.875394,80.1373187 142.109939,79.9652502 C142.345091,79.7943892 142.462061,79.4822508 142.462061,79.0300427 C142.462061,78.7492993 142.415394,78.5464396 142.321455,78.4214635 C142.227515,78.2970912 142.149333,78.1992838 142.086909,78.1292489 C142.023879,78.059214 141.929939,77.9885754 141.805091,77.9185405 C141.679636,77.8485056 141.574182,77.7941681 141.488121,77.7555282 C141.402061,77.7162845 141.272364,77.6655696 141.100848,77.6033834 C140.928121,77.5411972 140.795394,77.4941048 140.701455,77.4627098 C140.607515,77.4319186 140.451152,77.3848262 140.232364,77.32264 C140.012364,77.2604539 139.766303,77.1861927 139.492364,77.1004603 C139.218424,77.014728 139.011152,76.9483155 138.870545,76.9018269 C138.729333,76.8547344 138.451758,76.7533046 138.037212,76.5975373 C137.622061,76.44177 137.332364,76.3047189 137.168121,76.1881953 C137.003879,76.0716717 136.776606,75.8996032 136.487515,75.6731973 C136.197818,75.4473951 135.990545,75.2101217 135.865697,74.9607733 C135.536606,74.2743104 135.372364,73.5884514 135.372364,72.9025923 C135.372364,71.6238516 135.802667,70.6216279 136.663273,69.8971289 C137.523879,69.1720262 138.811758,68.8091729 140.525697,68.8091729 C142.239636,68.8091729 143.894788,69.0748225 145.490545,69.6049143 L144.951152,72.4111405 C143.151152,71.9438386 141.617212,71.7095839 140.349333,71.7095839" id="Fill-38" fill="#FFFFFF" mask="url(#mask-2)"></path>
                        <polygon id="Fill-39" fill="#FFFFFF" mask="url(#mask-2)" points="163.614364 73.0662687 163.614364 76.1532383 158.027091 76.1532383 158.144667 82.8651179 154.458606 82.8651179 154.458606 66.4238203 164.365879 66.4238203 164.365879 69.6049747 158.097394 69.534336 158.027091 73.0662687"></polygon>
                        <path d="M174.179576,75.9895015 C174.179576,74.2120639 174.018364,73.0311305 173.698364,72.4460976 C173.377152,71.8616684 172.75897,71.5694538 171.843818,71.5694538 C170.928061,71.5694538 170.305636,71.8658946 169.976545,72.4575688 C169.648061,73.0510542 169.483818,74.2277614 169.483818,75.9895015 C169.483818,77.7518453 169.648061,78.9285525 169.976545,79.5214342 C170.305636,80.1137121 170.928061,80.4095492 171.843818,80.4095492 C172.75897,80.4095492 173.377152,80.1173346 173.698364,79.5323016 C174.018364,78.9478724 174.179576,77.7669391 174.179576,75.9895015 M167.171697,70.6451138 C168.102606,69.4213142 169.663818,68.8091125 171.855333,68.8091125 C174.046242,68.8091125 175.600182,69.4176917 176.515333,70.6336425 C177.431091,71.8501971 177.888667,73.6354834 177.888667,75.9895015 C177.888667,78.3435195 177.431091,80.1288058 176.515333,81.3453604 C175.600182,82.5613113 174.046242,83.1698904 171.855333,83.1698904 C169.663818,83.1698904 168.102606,82.5576888 167.171697,81.3338892 C166.240182,80.1094859 165.774727,78.3284258 165.774727,75.9895015 C165.774727,73.6505772 166.240182,71.8695171 167.171697,70.6451138" id="Fill-40" fill="#FFFFFF" mask="url(#mask-2)"></path>
                        <path d="M184.356545,70.0840497 C184.615333,69.8896424 185.075939,69.628219 185.742,69.3003832 C186.406848,68.9731512 187.032909,68.8095351 187.620182,68.8095351 C188.207455,68.8095351 188.672303,68.8952675 189.016545,69.0667323 L188.735333,72.2007943 C188.296545,72.1543056 187.866242,72.1307594 187.443818,72.1307594 C186.394727,72.1307594 185.416545,72.410899 184.509273,72.9723857 L184.509273,82.8654197 L180.870485,82.8654197 L180.870485,69.1138247 L183.124424,69.1138247 L183.593515,70.5634265 L183.734727,70.5634265 C183.890485,70.4390542 184.098364,70.2790606 184.356545,70.0840497" id="Fill-41" fill="#FFFFFF" mask="url(#mask-2)"></path>
                        <path d="M198.149152,72.1771273 C197.867333,71.8348015 197.303697,71.662733 196.458848,71.662733 C195.613394,71.662733 195.010364,71.8655927 194.65097,72.2707084 C194.29097,72.6764279 194.087333,73.4637168 194.040667,74.6325752 L198.571576,74.5395978 C198.540061,73.3079495 198.398848,72.5200568 198.149152,72.1771273 Z M201.294606,66.4475476 L200.520061,67.8742069 L196.599455,66.3775127 L196.435212,66.3775127 L192.514606,67.8742069 L191.740061,66.4475476 L195.660667,63.991496 L197.374606,63.991496 L201.294606,66.4475476 Z M196.622485,83.1695886 C192.365515,83.1695886 190.23703,80.7763268 190.23703,75.9891996 C190.23703,71.2032799 192.350364,68.8094144 196.575818,68.8094144 C198.469152,68.8094144 199.894,69.3123375 200.848545,70.3181836 C201.803091,71.323426 202.280667,72.9885662 202.280667,75.3111893 L202.280667,77.2522429 L194.01703,77.2522429 C194.01703,78.5617748 194.259455,79.4275512 194.744909,79.8483643 C195.073394,80.1448052 195.535212,80.2927237 196.129758,80.2927237 C197.225515,80.2927237 198.618242,80.0433753 200.308545,79.5440748 L201.130364,79.2868776 L202.023091,81.9065453 C201.318242,82.2337773 200.441273,82.5265957 199.393394,82.7831891 C198.344303,83.04099 197.421273,83.1695886 196.622485,83.1695886 Z" id="Fill-42" fill="#FFFFFF" mask="url(#mask-2)"></path>
                        <path d="M209.112061,69.7916539 L211.92903,69.7916539 L211.92903,72.5749376 L209.065394,72.5749376 L209.065394,78.3516098 C209.065394,79.1002587 209.135697,79.5760131 209.276303,79.7782691 C209.417515,79.9811288 209.68297,80.0825586 210.075091,80.0825586 L211.882364,79.9654313 L211.882364,82.9117273 C211.115697,83.0837958 210.270242,83.1695282 209.347212,83.1695282 C207.985394,83.1695282 206.991455,82.8302212 206.365394,82.1522108 C205.739333,81.4742005 205.426606,80.175536 205.426606,78.2580286 L205.426606,72.5049027 L203.829636,72.5049027 L203.829636,70.2360133 L205.590242,69.9087813 L206.130848,66.6581957 L209.112061,66.6581957 L209.112061,69.7916539 Z" id="Fill-43" fill="#FFFFFF" mask="url(#mask-2)"></path>
                        <path d="M218.761091,71.7095839 C218.165939,71.7095839 217.778667,71.7838451 217.598667,71.9317636 C217.418667,72.0796822 217.32897,72.3018619 217.32897,72.5983027 C217.32897,72.8947436 217.461091,73.156167 217.727758,73.3819692 C217.993818,73.6083751 218.259879,73.7713874 218.525939,73.8728172 C218.792,73.9742471 219.101697,74.075677 219.453818,74.1771068 C219.805939,74.2785367 220.330182,74.4306815 221.026545,74.6329375 C221.722909,74.8357972 222.274424,75.0459019 222.681697,75.2644591 C223.886545,75.9352244 224.48897,77.0062755 224.48897,78.4800272 C224.48897,79.9531752 224.03503,81.1039211 223.127758,81.92985 C222.219879,82.7563826 220.944727,83.1693471 219.301091,83.1693471 C218.439879,83.1693471 217.539879,83.056446 216.601091,82.83004 C215.662303,82.6042378 214.934424,82.3826619 214.417455,82.1635009 L213.666545,81.8127227 L214.558061,78.9600078 C216.545939,79.8016342 218.173818,80.2230511 219.441697,80.2230511 C219.926545,80.2230511 220.287152,80.1373187 220.521697,79.9652502 C220.756242,79.7943892 220.873818,79.4822508 220.873818,79.0300427 C220.873818,78.7492993 220.826545,78.5464396 220.733212,78.4214635 C220.639273,78.2970912 220.560485,78.1992838 220.498061,78.1292489 C220.435636,78.059214 220.341091,77.9885754 220.216242,77.9185405 C220.090788,77.8485056 219.985939,77.7941681 219.899879,77.7555282 C219.813212,77.7162845 219.684121,77.6655696 219.512,77.6033834 C219.339879,77.5411972 219.206545,77.4941048 219.113212,77.4627098 C219.019273,77.4319186 218.862303,77.3848262 218.643515,77.32264 C218.424121,77.2604539 218.177455,77.1861927 217.904121,77.1004603 C217.630182,77.014728 217.422909,76.9483155 217.282303,76.9018269 C217.141091,76.8547344 216.862909,76.7533046 216.44897,76.5975373 C216.033818,76.44177 215.744121,76.3047189 215.579879,76.1881953 C215.41503,76.0716717 215.188364,75.8996032 214.899273,75.6731973 C214.60897,75.4473951 214.402303,75.2101217 214.276848,74.9607733 C213.948364,74.2743104 213.783515,73.5884514 213.783515,72.9025923 C213.783515,71.6238516 214.213818,70.6216279 215.07503,69.8971289 C215.935636,69.1720262 217.223515,68.8091729 218.936848,68.8091729 C220.650788,68.8091729 222.305939,69.0748225 223.902303,69.6049143 L223.362303,72.4111405 C221.562303,71.9438386 220.02897,71.7095839 218.761091,71.7095839" id="Fill-44" fill="#FFFFFF" mask="url(#mask-2)"></path>
                        <path d="M89.118,62.3131336 C89.7034545,61.9913353 90.0337576,61.3417012 89.9713333,60.6781809 C89.8549697,59.4404951 89.6513333,58.7419573 89.6513333,58.7419573 C89.6513333,58.7419573 86.8513333,60.1740503 86.2149697,59.0697931 C85.6610303,58.1074169 85.8555758,57.6696987 87.6392121,55.8330937 C88.2373939,55.2166658 88.3858788,54.2947408 88.0240606,53.5165081 C87.6446667,52.6990317 87.2204242,52.0173989 87.2204242,52.0173989 C87.2204242,52.0173989 84.8628485,56.3160931 83.6337576,55.0590873 C82.4034545,53.8020815 85.2961818,52.4176846 85.7719394,50.0129517 L83.7458788,47.7863247 C83.7458788,47.7863247 79.8501212,48.5470487 78.5725455,49.0071055 C77.3773939,50.2918838 81.3713333,53.1627111 79.2586061,54.3213058 C77.7149697,55.1677621 76.8573939,49.913333 76.8573939,49.913333 C76.8573939,49.913333 76.2598182,50.1361165 75.5804242,50.5116485 C74.8386061,50.9221979 74.4258788,51.7457118 74.5416364,52.5825082 C74.8567879,54.8731325 74.5337576,56.9234647 73.8919394,57.3557491 C72.6858788,58.1689993 70.5907273,55.6018578 70.5907273,55.6018578 C69.4446667,57.2778655 68.5301212,60.215709 68.1070909,61.9418279 C67.9919394,62.408526 68.0386061,62.9072228 68.2816364,63.323206 C69.2652727,65.005855 70.9173939,65.5564742 71.0501212,66.2314658 C71.2040606,67.3568543 69.9058788,67.3085543 68.4834545,66.625714 C70.4173939,72.7869743 75.3313333,71.2202452 76.3319394,70.828412 L76.6713333,70.9654631 C77.3986061,71.8946331 80.6167879,75.3661908 85.5937576,71.4750274 C84.0325455,71.2347352 82.5046667,71.1876428 82.647697,70.5995911 C82.7373939,70.2282853 84.7392121,69.6535161 86.208303,69.2791916 C87.2501212,69.0141457 88.1167879,68.2932692 88.5507273,67.3133843 C88.868303,66.5955265 89.1828485,65.7478627 89.2852727,65.0239674 C87.6416364,65.5776054 84.3070909,66.6842777 84.4004242,65.179131 C84.5252727,63.1650237 86.9895152,63.4831995 89.118,62.3131336" id="Fill-45" fill="#FFFFFF" mask="url(#mask-2)"></path>
                        <path d="M74.7193333,78.8850222 C72.8308485,77.9546447 62.5775152,76.9699298 62.5775152,76.3408231 L62.4781212,53.6000066 C62.4781212,49.4395711 64.9793333,47.2147554 67.0284242,46.0905744 C68.6696364,45.1891769 69.6538788,43.441323 69.6538788,41.5745305 L69.2472121,35.163318 L75.6696364,35.163318 C76.9605455,35.163318 78.006,34.1598869 78.0890303,32.8944286 C80.416303,32.0165773 82.0787273,29.7923654 82.0787273,27.1654527 L82.0787273,25.1881741 C82.0787273,21.9828698 79.6053939,19.3807108 76.4611515,19.1005712 C76.2423636,16.9192254 72.8775152,15.1858615 68.7472121,15.1858615 C64.6247879,15.1858615 61.2653939,16.9125842 61.0344848,19.086685 C57.826,19.3028272 55.2823636,21.9369848 55.2823636,25.1881741 L55.2823636,27.1654527 C55.2823636,30.414227 57.8217576,33.0453659 61.026,33.2651306 C61.2684242,34.3506716 62.2369091,35.163318 63.3993333,35.163318 L63.6611515,35.163318 L63.0684242,40.9834601 C63.0684242,42.3539707 58.976303,44.5129778 56.1272121,45.8496785 C52.9520606,47.3397314 49.0550909,46.3749402 47.1575152,43.434078 C46.9684242,43.1412597 46.8272121,42.87561 46.7326667,42.6606753 L46.7029697,42.5833954 L48.0490303,42.5833954 C49.6702424,42.5833954 50.9853939,41.2732597 50.9853939,39.6576269 C50.9853939,38.7749456 50.5847879,37.9936942 49.9641818,37.4575649 C51.2878182,36.304404 52.1308485,34.6157175 52.1308485,32.7368501 C52.1308485,29.2846123 49.2950909,26.4584624 45.8284242,26.4584624 L40.4823636,26.4584624 L38.995697,22.6059389 L42.3096364,22.6059389 C43.6544848,22.6059389 44.7447879,21.5197941 44.7447879,20.1806785 L44.7447879,19.9156326 L51.5350909,19.9156326 C54.9405455,19.9156326 57.7011515,17.1655551 57.7011515,13.7730885 L57.7011515,11.3399793 C57.7011515,7.94751266 54.9405455,5.19743516 51.5350909,5.19743516 L49.3629697,5.19743516 C48.9132727,2.37068152 46.476303,0.203221973 43.5120606,0.203221973 L33.6847879,0.203221973 C30.7205455,0.203221973 28.2835758,2.37068152 27.8344848,5.19743516 L25.3520606,5.19743516 C21.9466061,5.19743516 19.186,7.94751266 19.186,11.3399793 L19.186,13.7730885 C19.186,17.1655551 21.9466061,19.9156326 25.3520606,19.9156326 L25.6993333,19.9156326 L25.6993333,20.1806785 C25.6993333,21.5197941 26.7896364,22.6059389 28.1344848,22.6059389 L34.546,22.6059389 C34.8514545,23.7222711 35.2126667,25.0281806 35.615697,26.4584624 L28.9235758,26.4584624 C25.4569091,26.4584624 22.6205455,29.2846123 22.6205455,32.7368501 C22.6205455,36.1902954 25.4569091,39.0158415 28.9235758,39.0158415 L33.0132727,39.0158415 C32.966,39.2235313 32.9369091,39.4366547 32.9369091,39.6576269 C32.9369091,41.2732597 34.2514545,42.5833954 35.8732727,42.5833954 L40.5569091,42.5833954 C41.9538788,46.6122137 43.2666061,49.7686144 44.1684242,50.5631483 C46.7902424,52.8712814 52.9653939,50.927209 52.9653939,55.8725185 L52.9653939,72.9525827 C52.9653939,74.1304974 52.4944848,75.1985297 51.7296364,75.9797811 C50.8247879,76.9059324 44.7199394,78.4370403 39.9114545,79.5274113 C38.9393333,79.7483835 39.0496364,81.1587416 40.0441818,81.227569 C43.7750909,81.4853699 46.4690303,81.7896594 47.5072121,81.9073905 C53.4526667,82.5799671 40.0084242,86.5846354 44.0017576,88.0728771 C46.4375152,88.9803121 58.4690303,81.3271876 62.3253939,80.6920434 C66.0150909,80.0846718 72.0890303,80.2042141 74.4641818,80.0973505 C75.126,80.0677668 75.3132727,79.1772368 74.7193333,78.8850222" id="Fill-46" fill="#FFFFFF" mask="url(#mask-2)"></path>
                        <path d="M25.6068485,53.6265716 C26.2613939,53.2842458 26.1044242,52.3188509 26.3092727,52.3007384 C26.7426061,52.260891 27.5692727,53.505218 28.0207879,53.4170706 C28.7832121,53.2685483 27.6613939,52.2820222 28.4377576,52.0870112 C29.2147273,51.8920002 30.2110909,53.5408392 30.9474545,53.2437946 C31.4377576,53.0463686 30.0238182,50.8287979 30.0238182,50.8287979 C30.6238182,50.4798309 33.3092727,53.4901243 33.6904848,52.9099213 C33.9389697,52.5325781 31.4401818,48.5550785 27.3577576,47.5256862 C26.5286667,47.3161852 21.402,46.6442124 21.2050303,46.8180921 C21.9595758,46.1521568 23.1201818,45.5894626 23.6207879,45.0002034 C23.9159394,44.6530476 25.1456364,44.9500922 25.1456364,44.9500922 C24.0632121,42.719239 22.6480606,43.1008085 22.1529091,43.1623909 C21.3995758,43.255972 21.0462424,43.3386856 20.3595758,43.778215 C18.8038182,44.7731937 18.1747273,44.7236863 17.252303,43.1949933 C16.3189697,41.6481879 16.5607879,38.2605513 15.412303,37.1834628 C11.9735152,33.9564234 -3.4210303,31.4707881 5.13533333,35.0993206 C5.39048485,35.2079955 7.67715152,35.9632857 7.79048485,36.2905178 C7.99472727,36.8840032 4.242,35.4265527 4.49593939,36.2868953 C4.53593939,36.4233426 8.21775758,37.9949017 8.25836364,38.1277265 C8.36624242,38.4791085 5.55593939,38.0438054 5.66624242,38.3698299 C5.81048485,38.7972843 7.29836364,39.3509223 7.4450303,39.7367181 C7.61654545,40.1865112 5.41290909,40.2209249 8.01109091,41.1223224 C8.87533333,41.421782 9.22806061,41.8782164 8.61109091,42.1402435 C8.26745455,42.2857471 7.1189697,42.5513967 8.38260606,43.2022383 C9.87048485,43.968396 10.1886667,44.1857457 8.99472727,45.448789 C8.46987879,46.0042383 11.2668485,45.4892402 11.0238182,45.6896849 C8.05957576,48.1221904 13.511697,46.8730333 13.511697,46.8730333 C12.672303,48.0455142 7.59048485,53.0626699 6.75169697,53.4877093 C6.37533333,53.678494 5.89351515,53.8934287 5.98624242,54.4017856 C6.07715152,54.8968599 7.44745455,54.4277468 7.7250303,54.3486556 C7.41836364,54.4361993 7.23775758,54.8334662 7.04442424,55.0514197 C6.462,55.7082988 5.99472727,56.4509103 5.50260606,57.173598 C4.98139394,57.939152 3.60260606,59.0071843 3.84563636,60.0414066 C3.91048485,60.3191312 4.09775758,60.502671 4.01715152,60.7960931 C3.942,61.0701952 3.63533333,61.2470937 3.44381818,61.4372747 C3.11230303,61.7651105 2.84806061,62.1503025 2.57230303,62.524627 C2.01775758,63.2775022 1.50018182,64.0557349 0.947454545,64.8098176 C0.633515152,65.2378758 0.162606061,65.8047962 0.0413939394,66.3240205 C-0.244666667,67.5538576 1.02442424,66.5003153 1.39351515,66.164027 C2.26321212,65.3713043 3.16563636,64.5550355 4.12078788,63.8444227 C3.86321212,64.1360335 3.96260606,64.5556392 4.362,64.6806153 C4.96624242,64.8683813 7.01048485,62.7902766 6.75290909,62.5717194 C7.78018182,63.4423257 8.4850303,62.1285675 9.03836364,61.3636173 C10.3098788,59.6054997 11.4177576,57.7332735 12.6777576,55.9636847 C12.8589697,55.7082988 15.9601818,51.3770022 16.2498788,51.4271134 C18.5001818,51.8165316 19.7468485,49.9104954 20.9801818,52.6654029 C21.4238182,53.6561553 22.0032121,52.7300041 22.6862424,52.3798296 C22.9032121,52.268136 23.5062424,53.6018179 23.7389697,53.4780493 C23.9910909,53.3434132 24.2274545,52.7517391 24.4795758,52.617103 C24.712303,52.4921269 25.3910909,53.7394727 25.6068485,53.6265716" id="Fill-47" fill="#FFFFFF" mask="url(#mask-2)"></path>
                        <path d="M37.4024848,70.5386728 C36.3473333,71.3247542 34.7291515,68.8010827 34.063697,67.6442992 C33.9303636,67.4130633 34.1224848,67.1323199 34.3873333,67.1715636 C34.9897576,67.2591073 35.9327879,67.4384208 36.7933939,67.7783316 C37.9703636,68.2426147 38.3115758,69.8612662 37.4024848,70.5386728 M31.934,69.7682888 C31.2624848,69.1560872 32.4455152,67.9932663 33.1358182,67.4082333 C33.3327879,67.2415985 33.6327879,67.3605371 33.6600606,67.6165268 C33.7030909,68.0192275 33.7364242,68.5825255 33.6776364,69.1162397 C33.583697,69.9614886 32.564303,70.3424543 31.934,69.7682888 M30.6170303,65.3971448 C31.2085455,64.7076632 32.4152121,65.8457304 33.0255152,66.5128733 C33.1994545,66.7024505 33.0903636,67.0055326 32.8346061,67.0417576 C32.4321818,67.09851 31.8685455,67.1510362 31.3315758,67.1099812 C30.4800606,67.0465876 30.0630909,66.0443639 30.6170303,65.3971448 M34.3049091,63.064258 C35.2952121,63.4482425 34.4273333,65.3035637 33.9315758,66.2067724 C33.8091515,66.4301596 33.483697,66.4259334 33.3685455,66.1989237 C33.1509697,65.7714693 32.8588485,65.1260614 32.7000606,64.4764273 C32.4709697,63.5388048 33.4188485,62.7207247 34.3049091,63.064258 M35.0121818,65.098289 C35.4473333,64.366545 36.534,64.4383911 36.8703636,65.2202463 C37.2285455,66.0540239 35.6691515,66.6269819 34.7976364,66.8763303 C34.5497576,66.9469689 34.3261212,66.7145255 34.4073333,66.4706108 C34.5346061,66.0860226 34.7376364,65.5595533 35.0121818,65.098289 M44.0830909,64.4697861 C43.9400606,62.9284144 41.9249091,61.403344 40.8267273,61.3490066 C39.7291515,61.2952729 38.4509697,62.657331 38.1273333,62.5317512 C37.8030909,62.4061714 40.6115758,59.0366472 37.4988485,57.4578431 C34.3861212,55.8796428 30.1558182,59.0692497 30.8212727,61.1847868 C29.3273333,60.2344856 25.9079394,60.3944791 25.3667273,64.6430621 C22.6297576,68.7835739 29.7382424,69.6825565 29.2885455,69.8793787 C28.8382424,70.0762009 26.9667273,70.0943134 26.7146061,70.7391175 C26.4624848,71.3845254 25.3279394,74.2885589 29.4667273,75.1507128 C32.9576364,75.7604994 33.4618788,74.4702874 33.4618788,74.4702874 C33.4618788,74.4702874 35.5485455,76.7657418 38.0509697,75.1350153 C42.6770303,72.8413722 40.0679394,69.9729598 40.0679394,69.9729598 C43.7570303,71.0313321 44.2267273,66.0117615 44.0830909,64.4697861" id="Fill-48" fill="#FFFFFF" mask="url(#mask-2)"></path>
                    </g>
                </g>
            </g>
        </g>
    </g>
</svg>